<svg version="1.1" xmlns="http://www.w3.org/2000/svg" xmlns:xlink="http://www.w3.org/1999/xlink" x="0px" y="0px"
	 width="24px" height="24px" viewBox="0 0 24 24">
<style type="text/css">
	.st0{fill:#515151;}
</style>
<path  class="st0"d="M0 0 C22.77 0 45.54 0 69 0 C69 24.09 69 48.18 69 73 C46.23 73 23.46 73 0 73 C0 48.91 0 24.82 0 0 Z " fill="#FAF9F9" transform="translate(0,0)"/>
<path class="st0" d="M0 0 C2.82836101 1.36763139 5.03539332 2.69394993 7.3125 4.875 C7.84488281 5.36742187 8.37726562 5.85984375 8.92578125 6.3671875 C10 8 10 8 9.80395508 9.8359375 C8.08872072 14.45295461 3.80118175 17.70960937 0.375 21.125 C-0.42035156 21.94871094 -1.21570313 22.77242187 -2.03515625 23.62109375 C-7.50974491 29.11366136 -11.06881896 31.79016251 -18.9375 32.125 C-19.618125 32.08375 -20.29875 32.0425 -21 32 C-22.36381303 28.03254392 -21.804147 25.16372293 -20.28588867 21.3046875 C-17.57426647 16.44466974 -13.30797831 12.80549581 -9.3125 9 C-8.41982422 8.12988281 -7.52714844 7.25976562 -6.60742188 6.36328125 C-4.41589472 4.23035108 -2.21355117 2.11002489 0 0 Z " fill="#F78E47" transform="translate(36,21)"/>
<path class="st0" d="M0 0 C3.51865145 0.3015987 5.00757452 1.00605962 7.8125 3.25 C10 6 10 6 10.5625 8.5625 C9.83858751 11.69945412 8.42429075 12.95450468 6 15 C2.78475695 13.59155282 0.67816132 11.89655214 -1.75 9.375 C-2.36359375 8.74335938 -2.9771875 8.11171875 -3.609375 7.4609375 C-4.29773437 6.73777344 -4.29773437 6.73777344 -5 6 C-3.35 4.02 -1.7 2.04 0 0 Z " fill="#F78F49" transform="translate(44,13)"/>
<path class="st0" d="M0 0 C0.99 0 1.98 0 3 0 C3 1.32 3 2.64 3 4 C4.32 4 5.64 4 7 4 C7 4.99 7 5.98 7 7 C6.01 7.495 6.01 7.495 5 8 C5 8.66 5 9.32 5 10 C2.36 10.33 -0.28 10.66 -3 11 C-3.77446576 8.21192326 -4.21049043 6.56670499 -3.1875 3.8125 C-2 2 -2 2 0 0 Z " fill="#F79858" transform="translate(18,42)"/>
<path class="st0" d="M0 0 C-1.58561638 3.85593074 -4.06509954 6.33216291 -7 9.25 C-7.886875 10.14203125 -8.77375 11.0340625 -9.6875 11.953125 C-12 14 -12 14 -14 14 C-13.50314143 9.74689068 -11.08038643 7.67968742 -8.125 4.75 C-7.24070312 3.85796875 -6.35640625 2.9659375 -5.4453125 2.046875 C-3 0 -3 0 0 0 Z " fill="#FAE0D7" transform="translate(38,26)"/>
<path class="st0" d="M0 0 C0.99 0 1.98 0 3 0 C3 1.32 3 2.64 3 4 C4.32 4 5.64 4 7 4 C7 4.99 7 5.98 7 7 C5.0085944 7.38133299 3.00720923 7.71325582 1 8 C0 7 0 7 -0.0625 3.4375 C-0.041875 2.303125 -0.02125 1.16875 0 0 Z " fill="#FAEDEB" transform="translate(18,42)"/>
</svg>
